<svg width="358" height="250" viewBox="0 0 358 250" fill="none" xmlns="http://www.w3.org/2000/svg">
  <path
    d="M338.382 33.2563H259.335L251.81 10.6238C250.135 4.53381 244.552 0.278809 238.232 0.278809H119.767C113.45 0.278809 107.867 4.53381 106.25 10.4338L98.6662 33.2563H19.6175C9.02998 33.2563 0.41748 41.8713 0.41748 52.4563V230.521C0.41748 241.106 9.02998 249.721 19.6175 249.721H338.382C348.97 249.721 357.582 241.106 357.582 230.521V52.4563C357.582 41.8713 348.97 33.2563 338.382 33.2563ZM113.597 12.6638C114.36 9.89381 116.897 7.95881 119.767 7.95881H238.232C241.105 7.95881 243.642 9.89381 244.462 12.8538L250.955 32.3888H107.047L113.597 12.6638ZM19.6175 40.9363H338.382C344.735 40.9363 349.902 46.1063 349.902 52.4563V87.7238H234.185C220.167 73.3401 200.624 64.3663 179 64.3663C158.956 64.3663 140.732 72.1179 127.003 84.6988H8.09748V52.4563C8.09748 46.1063 13.265 40.9363 19.6175 40.9363ZM179 72.0463C217.292 72.0463 248.445 103.201 248.445 141.491C248.445 179.781 217.292 210.931 179 210.931C140.71 210.931 109.557 179.781 109.557 141.491C109.557 103.201 140.71 72.0463 179 72.0463ZM338.382 242.041H19.6175C13.265 242.041 8.09748 236.871 8.09748 230.521V92.3788H119.586C108.532 105.728 101.877 122.846 101.877 141.491C101.877 184.016 136.475 218.611 179 218.611C221.527 218.611 256.125 184.016 256.125 141.491C256.125 124.203 250.337 108.28 240.693 95.4038H349.902V230.521C349.902 236.871 344.735 242.041 338.382 242.041Z"
    fill="black" />
  <path
    d="M179 185.456C203.245 185.456 222.968 165.731 222.968 141.491C222.968 117.251 203.245 97.5264 179 97.5264C154.758 97.5264 135.035 117.251 135.035 141.491C135.035 165.731 154.758 185.456 179 185.456ZM179 105.206C199.01 105.206 215.288 121.481 215.288 141.491C215.288 161.501 199.01 177.776 179 177.776C158.993 177.776 142.715 161.501 142.715 141.491C142.715 121.481 158.993 105.206 179 105.206Z"
    fill="black" />
  <path
    d="M320.888 78.18C328.525 78.18 334.738 71.965 334.738 64.33C334.738 56.695 328.525 50.48 320.888 50.48C313.25 50.48 307.038 56.695 307.038 64.33C307.038 71.965 313.25 78.18 320.888 78.18ZM320.888 58.16C324.29 58.16 327.058 60.93 327.058 64.33C327.058 67.73 324.29 70.5 320.888 70.5C317.485 70.5 314.718 67.73 314.718 64.33C314.718 60.93 317.485 58.16 320.888 58.16Z"
    fill="black" />
</svg>
  